<svg xmlns="http://www.w3.org/2000/svg" viewBox="0 0 512 512"><rect width="512" height="512" rx="96" fill="#1F5C52"/><path d="M150 210h180v80a90 90 0 0 1-90 90h0a90 90 0 0 1-90-90z" fill="#F2EFE3"/><path d="M330 230h22a38 38 0 0 1 0 76h-26" fill="none" stroke="#F2EFE3" stroke-width="22"/><path d="M200 120c-14 22 14 38 0 60M250 110c-14 22 14 38 0 60M300 120c-14 22 14 38 0 60" fill="none" stroke="#CE9A2E" stroke-width="16" stroke-linecap="round"/><rect x="130" y="392" width="220" height="20" rx="10" fill="#CE9A2E"/></svg>
